0
SECTION
2
HEADER
9
$INSUNITS
70
4
0
ENDSEC
0
SECTION
2
TABLES
0
TABLE
2
LTYPE
0
LTYPE
72
65
70
64
2
CONTINUOUS
3
______
73
0
40
0
0
ENDTAB
0
TABLE
2
LAYER
0
ENDTAB
0
ENDSEC
0
SECTION
2
ENTITIES
0
LINE
8
0
10
265.9492104
20
-185.8497555
11
311.4492104
21
-185.8497555
0
LINE
8
0
10
311.9492104
20
-185.3497555
11
311.9492104
21
-162.8497555
0
LINE
8
0
10
311.4492104
20
-162.3497555
11
265.9492104
21
-162.3497555
0
LINE
8
0
10
265.4492104
20
-162.8497555
11
265.4492104
21
-185.3497555
0
ARC
8
0
10
311.4492104
20
-185.3497555
40
0.5
50
270
51
0
0
ARC
8
0
10
311.4492104
20
-162.8497555
40
0.5
50
0
51
90
0
ARC
8
0
10
265.9492104
20
-162.8497555
40
0.5
50
90
51
180
0
ARC
8
0
10
265.9492104
20
-185.3497555
40
0.5
50
180
51
270
0
ENDSEC
0
EOF