0
SECTION
2
HEADER
9
$INSUNITS
70
4
0
ENDSEC
0
SECTION
2
TABLES
0
TABLE
2
LTYPE
0
LTYPE
72
65
70
64
2
CONTINUOUS
3
______
73
0
40
0
0
ENDTAB
0
TABLE
2
LAYER
0
ENDTAB
0
ENDSEC
0
SECTION
2
ENTITIES
0
LINE
8
0
10
193.9415998
20
-108.3315639
11
200.0120331
21
-108.1864658
0
LINE
8
0
10
201.5478765
20
-109.6860375
11
201.5478765
21
-178.6481497
0
LINE
8
0
10
201.3472111
20
-179.3976357
11
191.2297818
21
-196.9375587
0
LINE
8
0
10
189.3598189
20
-197.5752941
11
154.5478764
21
-183.2555355
0
LINE
8
0
10
108.0478764
20
-180.8394343
11
87.3596541
21
-180.4279271
0
LINE
8
0
10
86.4680131
20
-180.1118158
11
68.6292441
21
-166.2236561
0
LINE
8
0
10
68.0652911
20
-165.248664
11
65.640256
21
-147.9801856
0
LINE
8
0
10
65.8818803
20
-146.9331578
11
81.3961207
21
-123.9179195
0
LINE
8
0
10
81.7738737
20
-123.5316177
11
102.7272393
21
-108.7147918
0
LINE
8
0
10
103.0765471
20
-108.5313379
11
123.759664
21
-100.9415721
0
LINE
8
0
10
124.2764034
20
-100.8497555
11
140.6959082
21
-100.8497555
0
LINE
8
0
10
140.9812165
20
-100.8771391
11
180.8887568
21
-108.6089271
0
ARC
8
0
10
200.0478765
20
-109.6860375
40
1.5
50
0
51
91.3692473
0
ARC
8
0
10
200.0478765
20
-178.6481497
40
1.5
50
330.0226633
51
0
0
ARC
8
0
10
189.9304471
20
-196.1880726
40
1.5
50
247.6403729
51
330.0226633
0
ARC
8
0
10
87.3894846
20
-178.9282237
40
1.5
50
232.0978859
51
268.8604837
0
ARC
8
0
10
69.5507156
20
-165.0400639
40
1.5
50
187.9938439
51
232.0978859
0
ARC
8
0
10
67.1256805
20
-147.7715856
40
1.5
50
146.0166598
51
187.9938439
0
ARC
8
0
10
82.6399209
20
-124.7563472
40
1.5
50
125.2654096
51
146.0166598
0
ARC
8
0
10
103.5932865
20
-109.9395213
40
1.5
50
110.150844
51
125.2654096
0
ARC
8
0
10
124.2764034
20
-102.3497555
40
1.5
50
90
51
110.150844
0
ARC
8
0
10
140.6959082
20
-102.3497555
40
1.5
50
79.0352172
51
90
0
ARC
8
0
10
181.1740652
20
-107.1363107
40
1.5
50
259.0352172
51
265.1771833
0
LINE
8
0
10
181.0478765
20
-108.6397554
11
181.0478765
21
-140.7497554
0
LINE
8
0
10
181.5478765
20
-141.2497554
11
193.5478765
21
-141.2497554
0
LINE
8
0
10
194.0478765
20
-140.7497554
11
194.0478765
21
-108.6397554
0
ARC
8
0
10
181.5478765
20
-108.6397554
40
0.5
50
178.9966423
51
180
0
ARC
8
0
10
181.5478765
20
-140.7497554
40
0.5
50
180
51
270
0
ARC
8
0
10
193.5478765
20
-140.7497554
40
0.5
50
270
51
0
0
ARC
8
0
10
193.5478765
20
-108.6397554
40
0.5
50
0
51
38.052477
0
LINE
8
0
10
108.0478764
20
-180.8394343
11
108.0478764
21
-162.8497555
0
LINE
8
0
10
108.5478764
20
-162.3497555
11
154.0478764
21
-162.3497555
0
LINE
8
0
10
154.5478764
20
-162.8497555
11
154.5478764
21
-183.2555355
0
ARC
8
0
10
108.5478764
20
-162.8497555
40
0.5
50
90
51
180
0
ARC
8
0
10
154.0478764
20
-162.8497555
40
0.5
50
0
51
90
0
ENDSEC
0
EOF