0
SECTION
2
HEADER
9
$INSUNITS
70
4
0
ENDSEC
0
SECTION
2
TABLES
0
TABLE
2
LTYPE
0
LTYPE
72
65
70
64
2
CONTINUOUS
3
______
73
0
40
0
0
ENDTAB
0
TABLE
2
LAYER
0
ENDTAB
0
ENDSEC
0
SECTION
2
ENTITIES
0
LINE
8
0
10
202.1857901
20
-180.3454922
11
192.9253938
21
-196.3996332
0
ARC
8
0
10
189.2870333
20
-194.3014596
40
4.2
50
247.6473616
51
330.0226633
0
LINE
8
0
10
187.6892742
20
-198.1856798
11
150.8019748
21
-183.0122311
0
ARC
8
0
10
150.117036
20
-184.6768208
40
1.8
50
67.6403729
51
88.8604837
0
LINE
8
0
10
150.1528326
20
-182.8771767
11
87.6057649
21
-181.6330597
0
ARC
8
0
10
87.6892903
20
-177.4338904
40
4.2
50
240.1250154
51
268.8604837
0
LINE
8
0
10
85.5968439
20
-181.0755477
11
67.7626079
21
-170.830766
0
ARC
8
0
10
69.8546666
20
-167.1888859
40
4.2
50
187.9999997
51
240.1250154
0
LINE
8
0
10
65.6955407
20
-167.7734129
11
62.6502188
21
-146.104822
0
ARC
8
0
10
66.8093447
20
-145.520295
40
4.2
50
146.0197769
51
187.9999997
0
LINE
8
0
10
63.3268627
20
-143.1724619
11
77.2957255
21
-122.4527977
0
ARC
8
0
10
80.7782075
20
-124.8006308
40
4.2
50
117.3166777
51
146.0057979
0
LINE
8
0
10
78.8511904
20
-121.0687942
11
121.3492949
21
-99.1182158
0
ARC
8
0
10
123.276887
20
-102.8497555
40
4.2
50
90
51
117.3166777
0
LINE
8
0
10
123.276887
20
-98.6497555
11
142.2321807
21
-98.6497555
0
ARC
8
0
10
142.2321807
20
-102.8497555
40
4.2
50
77.9855313
51
90
0
LINE
8
0
10
143.1064472
20
-98.7417562
11
181.4888866
21
-106.9103265
0
ARC
8
0
10
181.8635722
20
-105.1497554
40
1.8
50
257.9855313
51
270
0
LINE
8
0
10
181.8635722
20
-106.9497554
11
198.5478765
21
-106.9497554
0
ARC
8
0
10
198.5478765
20
-111.1497554
40
4.2
50
0
51
90
0
LINE
8
0
10
202.7478765
20
-111.1497554
11
202.7478765
21
-178.2465438
0
ARC
8
0
10
198.5478765
20
-178.2465438
40
4.2
50
330.0226633
51
360
0
ENDSEC
0
EOF