0
SECTION
2
HEADER
9
$INSUNITS
70
4
0
ENDSEC
0
SECTION
2
TABLES
0
TABLE
2
LTYPE
0
LTYPE
72
65
70
64
2
CONTINUOUS
3
______
73
0
40
0
0
ENDTAB
0
TABLE
2
LAYER
0
ENDTAB
0
ENDSEC
0
SECTION
2
ENTITIES
0
LINE
8
0
10
181.2051295
20
-108.4359395
11
200.007254
21
-107.9865229
0
ARC
8
0
10
200.0478765
20
-109.6860375
40
1.7
50
0
51
91.3692473
0
LINE
8
0
10
201.7478765
20
-109.6860375
11
201.7478765
21
-178.6481497
0
ARC
8
0
10
200.0478765
20
-178.6481497
40
1.7
50
330.0226633
51
360
0
LINE
8
0
10
201.5203558
20
-179.4977405
11
191.4031263
21
-197.0373169
0
ARC
8
0
10
189.9304471
20
-196.1880726
40
1.7
50
247.6403729
51
330.0226633
0
LINE
8
0
10
189.2837351
20
-197.760257
11
150.9223454
21
-181.9804469
0
ARC
8
0
10
150.4278009
20
-183.1827056
40
1.3
50
67.6403729
51
88.8604837
0
LINE
8
0
10
150.453654
20
-181.8829626
11
87.3556767
21
-180.6278875
0
ARC
8
0
10
87.3894846
20
-178.9282237
40
1.7
50
232.0978859
51
268.8533102
0
LINE
8
0
10
86.3451502
20
-180.2696281
11
68.5063812
21
-166.3814684
0
ARC
8
0
10
69.5507156
20
-165.0400639
40
1.7
50
187.9938439
51
232.0978859
0
LINE
8
0
10
67.8672345
20
-165.2764773
11
65.4421995
21
-148.007999
0
ARC
8
0
10
67.1256805
20
-147.7715856
40
1.7
50
146.0166598
51
187.9938439
0
LINE
8
0
10
65.7160403
20
-146.8213674
11
81.2302806
21
-123.8061291
0
ARC
8
0
10
82.6399209
20
-124.7563472
40
1.7
50
125.2654096
51
146.0094848
0
LINE
8
0
10
81.6584007
20
-123.3683204
11
102.6117664
21
-108.5514945
0
ARC
8
0
10
103.5932865
20
-109.9395213
40
1.7
50
110.150844
51
125.2582339
0
LINE
8
0
10
103.0076485
20
-108.3435801
11
123.6907654
21
-100.7538143
0
ARC
8
0
10
124.2764034
20
-102.3497555
40
1.7
50
90
51
110.150844
0
LINE
8
0
10
124.2764034
20
-100.6497555
11
140.6959082
21
-100.6497555
0
ARC
8
0
10
140.6959082
20
-102.3497555
40
1.7
50
79.0352172
51
90
0
LINE
8
0
10
141.0192576
20
-100.6807902
11
180.9267979
21
-108.4125783
0
ARC
8
0
10
181.1740652
20
-107.1363107
40
1.3
50
259.0434228
51
271.3692473
0
ENDSEC
0
EOF