0
SECTION
2
HEADER
9
$INSUNITS
70
4
0
ENDSEC
0
SECTION
2
TABLES
0
TABLE
2
LTYPE
0
LTYPE
72
65
70
64
2
CONTINUOUS
3
______
73
0
40
0
0
ENDTAB
0
TABLE
2
LAYER
0
ENDTAB
0
ENDSEC
0
SECTION
2
ENTITIES
0
LINE
8
0
10
89.7705587
20
-175.9698365
11
107.595384
21
-173.4647207
0
LINE
8
0
10
107.595384
20
-173.4647207
11
105.9508908
21
-161.7635435
0
LINE
8
0
10
100.4975559
20
-122.9610491
11
105.9403497
21
-161.6885397
0
LINE
8
0
10
87.8221354
20
-162.1060835
11
89.7705587
21
-175.9698365
0
LINE
8
0
10
82.6727306
20
-125.4661649
11
85.4561927
21
-145.2715263
0
LINE
8
0
10
100.4975559
20
-122.9610491
11
82.6727306
21
-125.4661649
0
LINE
8
0
10
105.9508908
20
-161.7635435
11
123.9196302
21
-160.8218417
0
LINE
8
0
10
123.9196302
20
-160.8218417
11
123.5804426
21
-154.3497555
0
LINE
8
0
10
123.5478764
20
-153.7283562
11
123.029919
21
-143.8451396
0
LINE
8
0
10
105.0545874
20
-144.7871869
11
105.9403497
21
-161.6885397
0
LINE
8
0
10
123.0299189
20
-143.8451396
11
122.1402077
21
-126.8684375
0
LINE
8
0
10
104.1648761
20
-127.8104848
11
105.0545873
21
-144.7871869
0
LINE
8
0
10
122.1402076
20
-126.8684375
11
121.2504964
21
-109.8917354
0
LINE
8
0
10
121.2504964
20
-109.8917354
11
103.2751648
21
-110.8337827
0
LINE
8
0
10
103.2751648
20
-110.8337827
11
104.164876
21
-127.8104848
0
LINE
8
0
10
123.5804426
20
-154.3497555
11
141.5478764
21
-154.3497555
0
LINE
8
0
10
141.5478764
20
-154.3497555
11
141.5478764
21
-103.3497555
0
LINE
8
0
10
123.5478764
20
-153.7283562
11
123.5478764
21
-103.3497555
0
LINE
8
0
10
141.5478764
20
-103.3497555
11
123.5478764
21
-103.3497555
0
LINE
8
0
10
141.5478765
20
-159.3497554
11
159.5478765
21
-159.3497554
0
LINE
8
0
10
141.5478765
20
-159.3497554
11
141.5478765
21
-108.3497554
0
LINE
8
0
10
159.5478765
20
-110.3497554
11
159.5478765
21
-108.3497554
0
LINE
8
0
10
159.5478765
20
-108.3497554
11
141.5478765
21
-108.3497554
0
LINE
8
0
10
159.5478765
20
-161.3497554
11
177.5478765
21
-161.3497554
0
LINE
8
0
10
177.5478765
20
-161.3497554
11
177.5478765
21
-110.3497554
0
LINE
8
0
10
159.5478765
20
-159.3497554
11
159.5478765
21
-161.3497554
0
LINE
8
0
10
177.5478765
20
-110.3497554
11
159.5478765
21
-110.3497554
0
LINE
8
0
10
155.1545822
20
-178.7307535
11
172.5412471
21
-183.3894963
0
LINE
8
0
10
172.5412471
20
-183.3894963
11
176.9411708
21
-166.9687573
0
LINE
8
0
10
176.9411708
20
-166.9687573
11
159.5545059
21
-162.3100145
0
LINE
8
0
10
159.5545059
20
-162.3100145
11
155.1545822
21
-178.7307535
0
LINE
8
0
10
173.9543148
20
-183.860584
11
189.542772
21
-192.860584
0
LINE
8
0
10
189.542772
20
-192.860584
11
198.042772
21
-178.1381522
0
LINE
8
0
10
198.042772
20
-178.1381522
11
182.4543148
21
-169.1381522
0
LINE
8
0
10
182.4543148
20
-169.1381522
11
173.9543148
21
-183.860584
0
LINE
8
0
10
69.9973101
20
-164.6111993
11
87.8221354
21
-162.1060835
0
LINE
8
0
10
85.4561927
20
-145.2715263
11
67.6313674
21
-147.7766421
0
LINE
8
0
10
67.6313674
20
-147.7766421
11
69.9973101
21
-164.6111993
0
ENDSEC
0
EOF