0
SECTION
2
HEADER
9
$INSUNITS
70
4
0
ENDSEC
0
SECTION
2
TABLES
0
TABLE
2
LTYPE
0
LTYPE
72
65
70
64
2
CONTINUOUS
3
______
73
0
40
0
0
ENDTAB
0
TABLE
2
LAYER
0
ENDTAB
0
ENDSEC
0
SECTION
2
ENTITIES
0
LINE
8
0
10
91.9638686
20
-175.40913
11
105.3324876
21
-173.5302931
0
LINE
8
0
10
107.0346775
20
-171.2714108
11
105.2950137
21
-158.8930599
0
LINE
8
0
10
103.0361314
20
-157.19087
11
89.6675124
21
-159.0697069
0
LINE
8
0
10
87.9653225
20
-161.3285892
11
89.7049863
21
-173.7069401
0
LINE
8
0
10
89.5979259
20
-158.5745728
11
102.9665449
21
-156.6957359
0
LINE
8
0
10
104.6687348
20
-154.4368536
11
102.929071
21
-142.0585027
0
LINE
8
0
10
100.6701887
20
-140.3563128
11
87.3015697
21
-142.2351497
0
LINE
8
0
10
85.5993798
20
-144.494032
11
87.3390436
21
-156.8723829
0
LINE
8
0
10
87.2319832
20
-141.7400156
11
100.6006022
21
-139.8611787
0
LINE
8
0
10
102.3027921
20
-137.6022964
11
100.5631283
21
-125.2239455
0
LINE
8
0
10
98.304246
20
-123.5217556
11
84.935627
21
-125.4005925
0
LINE
8
0
10
83.2334371
20
-127.6594748
11
84.9731009
21
-140.0378257
0
LINE
8
0
10
108.1781312
20
-161.3964757
11
121.6596299
21
-160.6899402
0
LINE
8
0
10
123.552217
20
-158.5880091
11
122.8980175
21
-146.10514
0
LINE
8
0
10
120.7960864
20
-144.2125529
11
107.3145877
21
-144.9190884
0
LINE
8
0
10
105.4220006
20
-147.0210195
11
106.0762001
21
-159.5038886
0
LINE
8
0
10
107.2884199
20
-144.4197736
11
120.7699186
21
-143.7132381
0
LINE
8
0
10
122.6625057
20
-141.611307
11
122.0083062
21
-129.1284379
0
LINE
8
0
10
119.9063751
20
-127.2358508
11
106.4248764
21
-127.9423863
0
LINE
8
0
10
104.5322893
20
-130.0443174
11
105.1864888
21
-142.5271865
0
LINE
8
0
10
106.3987086
20
-127.4430715
11
119.8802073
21
-126.736536
0
LINE
8
0
10
121.7727944
20
-124.6346049
11
121.1185949
21
-112.1517358
0
LINE
8
0
10
119.0166638
20
-110.2591487
11
105.5351651
21
-110.9656842
0
LINE
8
0
10
103.642578
20
-113.0676153
11
104.2967775
21
-125.5504844
0
LINE
8
0
10
125.7978764
20
-154.0997555
11
139.2978764
21
-154.0997555
0
LINE
8
0
10
141.2978764
20
-152.0997555
11
141.2978764
21
-139.5997555
0
LINE
8
0
10
139.2978764
20
-137.5997555
11
125.7978764
21
-137.5997555
0
LINE
8
0
10
123.7978764
20
-139.5997555
11
123.7978764
21
-152.0997555
0
LINE
8
0
10
125.7978764
20
-137.0997555
11
139.2978764
21
-137.0997555
0
LINE
8
0
10
141.2978764
20
-135.0997555
11
141.2978764
21
-122.5997555
0
LINE
8
0
10
139.2978764
20
-120.5997555
11
125.7978764
21
-120.5997555
0
LINE
8
0
10
123.7978764
20
-122.5997555
11
123.7978764
21
-135.0997555
0
LINE
8
0
10
125.7978764
20
-120.0997555
11
139.2978764
21
-120.0997555
0
LINE
8
0
10
141.2978764
20
-118.0997555
11
141.2978764
21
-105.5997555
0
LINE
8
0
10
139.2978764
20
-103.5997555
11
125.7978764
21
-103.5997555
0
LINE
8
0
10
123.7978764
20
-105.5997555
11
123.7978764
21
-118.0997555
0
LINE
8
0
10
143.7978765
20
-159.0997554
11
157.2978765
21
-159.0997554
0
LINE
8
0
10
159.2978765
20
-157.0997554
11
159.2978765
21
-144.5997554
0
LINE
8
0
10
157.2978765
20
-142.5997554
11
143.7978765
21
-142.5997554
0
LINE
8
0
10
141.7978765
20
-144.5997554
11
141.7978765
21
-157.0997554
0
LINE
8
0
10
143.7978765
20
-142.0997554
11
157.2978765
21
-142.0997554
0
LINE
8
0
10
159.2978765
20
-140.0997554
11
159.2978765
21
-127.5997554
0
LINE
8
0
10
157.2978765
20
-125.5997554
11
143.7978765
21
-125.5997554
0
LINE
8
0
10
141.7978765
20
-127.5997554
11
141.7978765
21
-140.0997554
0
LINE
8
0
10
143.7978765
20
-125.0997554
11
157.2978765
21
-125.0997554
0
LINE
8
0
10
159.2978765
20
-123.0997554
11
159.2978765
21
-110.5997554
0
LINE
8
0
10
157.2978765
20
-108.5997554
11
143.7978765
21
-108.5997554
0
LINE
8
0
10
141.7978765
20
-110.5997554
11
141.7978765
21
-123.0997554
0
LINE
8
0
10
161.7978765
20
-161.0997554
11
175.2978765
21
-161.0997554
0
LINE
8
0
10
177.2978765
20
-159.0997554
11
177.2978765
21
-146.5997554
0
LINE
8
0
10
175.2978765
20
-144.5997554
11
161.7978765
21
-144.5997554
0
LINE
8
0
10
159.7978765
20
-146.5997554
11
159.7978765
21
-159.0997554
0
LINE
8
0
10
161.7978765
20
-144.0997554
11
175.2978765
21
-144.0997554
0
LINE
8
0
10
177.2978765
20
-142.0997554
11
177.2978765
21
-129.5997554
0
LINE
8
0
10
175.2978765
20
-127.5997554
11
161.7978765
21
-127.5997554
0
LINE
8
0
10
159.7978765
20
-129.5997554
11
159.7978765
21
-142.0997554
0
LINE
8
0
10
161.7978765
20
-127.0997554
11
175.2978765
21
-127.0997554
0
LINE
8
0
10
177.2978765
20
-125.0997554
11
177.2978765
21
-112.5997554
0
LINE
8
0
10
175.2978765
20
-110.5997554
11
161.7978765
21
-110.5997554
0
LINE
8
0
10
159.7978765
20
-112.5997554
11
159.7978765
21
-125.0997554
0
LINE
8
0
10
157.3926202
20
-179.0716149
11
170.4326188
21
-182.565672
0
LINE
8
0
10
172.8821085
20
-181.1514583
11
176.1173465
21
-169.0773856
0
LINE
8
0
10
174.7031328
20
-166.6278959
11
161.6631342
21
-163.1338388
0
LINE
8
0
10
159.2136445
20
-164.5480525
11
155.9784065
21
-176.6221252
0
LINE
8
0
10
176.0278719
20
-184.7690777
11
187.7192149
21
-191.5190777
0
LINE
8
0
10
190.4512657
20
-190.7870269
11
196.7012657
21
-179.9617093
0
LINE
8
0
10
195.9692149
20
-177.2296585
11
184.2778719
21
-170.4796585
0
LINE
8
0
10
181.5458211
20
-171.2117093
11
175.2958211
21
-182.0370269
0
LINE
8
0
10
72.19062
20
-164.0504928
11
85.559239
21
-162.1716559
0
LINE
8
0
10
87.2614289
20
-159.9127736
11
85.5217651
21
-147.5344227
0
LINE
8
0
10
83.2628828
20
-145.8322328
11
69.8942638
21
-147.7110697
0
LINE
8
0
10
68.1920739
20
-149.969952
11
69.9317377
21
-162.3483029
0
ARC
8
0
10
188.7192149
20
-189.7870269
40
2
50
239.9999999
51
329.9999999
0
ARC
8
0
10
194.9692149
20
-178.9617093
40
2
50
329.9999999
51
59.9999999
0
ARC
8
0
10
183.2778719
20
-172.2117093
40
2
50
59.9999999
51
149.9999999
0
ARC
8
0
10
177.0278719
20
-183.0370269
40
2
50
149.9999999
51
239.9999999
0
ARC
8
0
10
121.5549579
20
-158.6926811
40
2
50
273.0000026
51
3.0000026
0
ARC
8
0
10
120.9007584
20
-146.209812
40
2
50
3.0000026
51
93.0000026
0
ARC
8
0
10
107.4192597
20
-146.9163475
40
2
50
93.0000026
51
183.0000026
0
ARC
8
0
10
108.0734592
20
-159.3992166
40
2
50
183.0000026
51
273.0000026
0
ARC
8
0
10
119.7755353
20
-124.7392769
40
2
50
273.0000026
51
3.0000026
0
ARC
8
0
10
119.1213358
20
-112.2564078
40
2
50
3.0000026
51
93.0000026
0
ARC
8
0
10
105.6398371
20
-112.9629433
40
2
50
93.0000026
51
183.0000026
0
ARC
8
0
10
106.2940366
20
-125.4458124
40
2
50
183.0000026
51
273.0000026
0
ARC
8
0
10
120.6652466
20
-141.715979
40
2
50
273.0000026
51
3.0000026
0
ARC
8
0
10
120.0110471
20
-129.2331099
40
2
50
3.0000026
51
93.0000026
0
ARC
8
0
10
106.5295484
20
-129.9396454
40
2
50
93.0000026
51
183.0000026
0
ARC
8
0
10
107.1837479
20
-142.4225145
40
2
50
183.0000026
51
273.0000026
0
ARC
8
0
10
139.2978764
20
-152.0997555
40
2
50
270
51
0
0
ARC
8
0
10
139.2978764
20
-139.5997555
40
2
50
0
51
90
0
ARC
8
0
10
125.7978764
20
-139.5997555
40
2
50
90
51
180
0
ARC
8
0
10
125.7978764
20
-152.0997555
40
2
50
180
51
270
0
ARC
8
0
10
139.2978764
20
-135.0997555
40
2
50
270
51
0
0
ARC
8
0
10
139.2978764
20
-122.5997555
40
2
50
0
51
90
0
ARC
8
0
10
125.7978764
20
-122.5997555
40
2
50
90
51
180
0
ARC
8
0
10
125.7978764
20
-135.0997555
40
2
50
180
51
270
0
ARC
8
0
10
139.2978764
20
-118.0997555
40
2
50
270
51
0
0
ARC
8
0
10
139.2978764
20
-105.5997555
40
2
50
0
51
90
0
ARC
8
0
10
125.7978764
20
-105.5997555
40
2
50
90
51
180
0
ARC
8
0
10
125.7978764
20
-118.0997555
40
2
50
180
51
270
0
ARC
8
0
10
157.2978765
20
-157.0997554
40
2
50
270
51
0
0
ARC
8
0
10
157.2978765
20
-144.5997554
40
2
50
0
51
90
0
ARC
8
0
10
143.7978765
20
-144.5997554
40
2
50
90
51
180
0
ARC
8
0
10
143.7978765
20
-157.0997554
40
2
50
180
51
270
0
ARC
8
0
10
157.2978765
20
-140.0997554
40
2
50
270
51
0
0
ARC
8
0
10
157.2978765
20
-127.5997554
40
2
50
0
51
90
0
ARC
8
0
10
143.7978765
20
-127.5997554
40
2
50
90
51
180
0
ARC
8
0
10
143.7978765
20
-140.0997554
40
2
50
180
51
270
0
ARC
8
0
10
157.2978765
20
-123.0997554
40
2
50
270
51
0
0
ARC
8
0
10
157.2978765
20
-110.5997554
40
2
50
0
51
90
0
ARC
8
0
10
143.7978765
20
-110.5997554
40
2
50
90
51
180
0
ARC
8
0
10
143.7978765
20
-123.0997554
40
2
50
180
51
270
0
ARC
8
0
10
175.2978765
20
-159.0997554
40
2
50
270
51
0
0
ARC
8
0
10
175.2978765
20
-146.5997554
40
2
50
0
51
90
0
ARC
8
0
10
161.7978765
20
-146.5997554
40
2
50
90
51
180
0
ARC
8
0
10
161.7978765
20
-159.0997554
40
2
50
180
51
270
0
ARC
8
0
10
175.2978765
20
-142.0997554
40
2
50
270
51
0
0
ARC
8
0
10
175.2978765
20
-129.5997554
40
2
50
0
51
90
0
ARC
8
0
10
161.7978765
20
-129.5997554
40
2
50
90
51
180
0
ARC
8
0
10
161.7978765
20
-142.0997554
40
2
50
180
51
270
0
ARC
8
0
10
175.2978765
20
-125.0997554
40
2
50
270
51
0
0
ARC
8
0
10
175.2978765
20
-112.5997554
40
2
50
0
51
90
0
ARC
8
0
10
161.7978765
20
-112.5997554
40
2
50
90
51
180
0
ARC
8
0
10
161.7978765
20
-125.0997554
40
2
50
180
51
270
0
ARC
8
0
10
170.9502568
20
-180.6338203
40
2
50
255.0000021
51
345.0000021
0
ARC
8
0
10
174.1854948
20
-168.5597476
40
2
50
345.0000021
51
75.0000021
0
ARC
8
0
10
161.1454962
20
-165.0656905
40
2
50
75.0000021
51
165.0000021
0
ARC
8
0
10
157.9102582
20
-177.1397632
40
2
50
165.0000021
51
255.0000021
0
ARC
8
0
10
105.0541414
20
-171.549757
40
2
50
277.9999997
51
7.9999997
0
ARC
8
0
10
103.3144776
20
-159.1714061
40
2
50
7.9999997
51
97.9999997
0
ARC
8
0
10
89.9458586
20
-161.050243
40
2
50
97.9999997
51
187.9999997
0
ARC
8
0
10
91.6855224
20
-173.4285939
40
2
50
187.9999997
51
277.9999997
0
ARC
8
0
10
102.6881987
20
-154.7151998
40
2
50
277.9999997
51
7.9999997
0
ARC
8
0
10
100.9485349
20
-142.3368489
40
2
50
7.9999997
51
97.9999997
0
ARC
8
0
10
87.5799159
20
-144.2156858
40
2
50
97.9999997
51
187.9999997
0
ARC
8
0
10
89.3195797
20
-156.5940367
40
2
50
187.9999997
51
277.9999997
0
ARC
8
0
10
100.322256
20
-137.8806426
40
2
50
277.9999997
51
7.9999997
0
ARC
8
0
10
98.5825922
20
-125.5022917
40
2
50
7.9999997
51
97.9999997
0
ARC
8
0
10
85.2139732
20
-127.3811286
40
2
50
97.9999997
51
187.9999997
0
ARC
8
0
10
86.953637
20
-139.7594795
40
2
50
187.9999997
51
277.9999997
0
ARC
8
0
10
85.2808928
20
-160.1911198
40
2
50
277.9999997
51
7.9999997
0
ARC
8
0
10
83.541229
20
-147.8127689
40
2
50
7.9999997
51
97.9999997
0
ARC
8
0
10
70.17261
20
-149.6916058
40
2
50
97.9999997
51
187.9999997
0
ARC
8
0
10
71.9122738
20
-162.0699567
40
2
50
187.9999997
51
277.9999997
0
ENDSEC
0
EOF