0
SECTION
2
HEADER
9
$INSUNITS
70
4
0
ENDSEC
0
SECTION
2
TABLES
0
TABLE
2
LTYPE
0
LTYPE
72
65
70
64
2
CONTINUOUS
3
______
73
0
40
0
0
ENDTAB
0
TABLE
2
LAYER
0
ENDTAB
0
ENDSEC
0
SECTION
2
ENTITIES
0
LINE
8
0
10
226.4492103
20
-108.1397554
11
238.4492103
21
-108.1397554
0
LINE
8
0
10
238.9492103
20
-108.6397554
11
238.9492103
21
-140.7497554
0
LINE
8
0
10
238.4492103
20
-141.2497554
11
226.4492103
21
-141.2497554
0
LINE
8
0
10
225.9492103
20
-140.7497554
11
225.9492103
21
-108.6397554
0
ARC
8
0
10
238.4492103
20
-108.6397554
40
0.5
50
0
51
90
0
ARC
8
0
10
238.4492103
20
-140.7497554
40
0.5
50
270
51
0
0
ARC
8
0
10
226.4492103
20
-140.7497554
40
0.5
50
180
51
270
0
ARC
8
0
10
226.4492103
20
-108.6397554
40
0.5
50
90
51
180
0
ENDSEC
0
EOF