0
SECTION
2
HEADER
9
$INSUNITS
70
4
0
ENDSEC
0
SECTION
2
TABLES
0
TABLE
2
LTYPE
0
LTYPE
72
65
70
64
2
CONTINUOUS
3
______
73
0
40
0
0
ENDTAB
0
TABLE
2
LAYER
0
ENDTAB
0
ENDSEC
0
SECTION
2
ENTITIES
0
CIRCLE
8
0
10
80.7489359
20
-131.8964848
40
1.1
0
CIRCLE
8
0
10
199.3478765
20
-110.8497554
40
1.1
0
CIRCLE
8
0
10
88.0866269
20
-177.288023
40
1.1
0
CIRCLE
8
0
10
172.4054177
20
-186.921698
40
1.1
0
CIRCLE
8
0
10
126.5478764
20
-158.8497555
40
1.1
0
CIRCLE
8
0
10
121.7488764
20
-104.8967555
40
1.1
0
ENDSEC
0
EOF