0
SECTION
2
HEADER
9
$INSUNITS
70
4
0
ENDSEC
0
SECTION
2
TABLES
0
TABLE
2
LTYPE
0
LTYPE
72
65
70
64
2
CONTINUOUS
3
______
73
0
40
0
0
ENDTAB
0
TABLE
2
LAYER
0
ENDTAB
0
ENDSEC
0
SECTION
2
ENTITIES
0
LINE
8
0
10
201.1465458
20
-179.745516
11
191.8857026
21
-195.8004318
0
LINE
8
0
10
188.1457768
20
-197.0759026
11
151.2582925
21
-181.9023778
0
LINE
8
0
10
150.176697
20
-181.6774141
11
87.6296293
21
-180.4332971
0
LINE
8
0
10
86.1949627
20
-180.0352333
11
68.360339
21
-169.7902288
0
LINE
8
0
10
66.8838624
20
-167.6064052
11
63.8385405
21
-145.9378143
0
LINE
8
0
10
64.3218576
20
-143.8432714
11
78.2907204
21
-123.1236072
0
LINE
8
0
10
79.4014829
20
-122.1351797
11
121.9001625
21
-100.1843044
0
LINE
8
0
10
123.276887
20
-99.8497555
11
142.2321807
21
-99.8497555
0
LINE
8
0
10
142.8566568
20
-99.9154703
11
181.2390961
21
-108.0840406
0
LINE
8
0
10
181.8635722
20
-108.1497554
11
198.5478765
21
-108.1497554
0
LINE
8
0
10
201.5478765
20
-111.1497554
11
201.5478765
21
-178.2465438
0
ARC
8
0
10
189.2870333
20
-194.3014596
40
3
50
247.6403729
51
330.0226633
0
ARC
8
0
10
150.117036
20
-184.6768208
40
3
50
67.6403729
51
88.8604837
0
ARC
8
0
10
87.6892903
20
-177.4338904
40
3
50
240.1250154
51
268.8604837
0
ARC
8
0
10
69.8546666
20
-167.1888859
40
3
50
187.9999997
51
240.1250154
0
ARC
8
0
10
66.8093447
20
-145.520295
40
3
50
146.0127871
51
187.9999997
0
ARC
8
0
10
80.7782075
20
-124.8006308
40
3
50
117.3166777
51
146.0127871
0
ARC
8
0
10
123.276887
20
-102.8497555
40
3
50
90
51
117.3166777
0
ARC
8
0
10
142.2321807
20
-102.8497555
40
3
50
77.9855313
51
90
0
ARC
8
0
10
181.8635722
20
-105.1497554
40
3
50
257.9855313
51
270
0
ARC
8
0
10
198.5478765
20
-111.1497554
40
3
50
0
51
90
0
ARC
8
0
10
198.5478765
20
-178.2465438
40
3
50
330.0226633
51
0
0
ENDSEC
0
EOF