0
SECTION
2
HEADER
9
$INSUNITS
70
4
0
ENDSEC
0
SECTION
2
TABLES
0
TABLE
2
LTYPE
0
LTYPE
72
65
70
64
2
CONTINUOUS
3
______
73
0
40
0
0
ENDTAB
0
TABLE
2
LAYER
0
ENDTAB
0
ENDSEC
0
SECTION
2
ENTITIES
0
LINE
8
0
10
238.7871782
20
-108.6358824
11
219.9850537
21
-108.1864658
0
LINE
8
0
10
218.4492103
20
-109.6860375
11
218.4492103
21
-178.6481497
0
LINE
8
0
10
218.6498757
20
-179.3976357
11
228.767305
21
-196.9375587
0
LINE
8
0
10
230.6372679
20
-197.5752941
11
268.9986576
21
-181.7954841
0
LINE
8
0
10
269.5394554
20
-181.6830022
11
332.6374327
21
-180.4279271
0
LINE
8
0
10
333.5290737
20
-180.1118158
11
351.3678427
21
-166.2236561
0
LINE
8
0
10
351.9317957
20
-165.248664
11
354.3568308
21
-147.9801856
0
LINE
8
0
10
354.1152065
20
-146.9331578
11
338.6009661
21
-123.9179195
0
LINE
8
0
10
338.2232131
20
-123.5316177
11
317.2698475
21
-108.7147918
0
LINE
8
0
10
316.9205397
20
-108.5313379
11
296.2374228
21
-100.9415721
0
LINE
8
0
10
295.7206834
20
-100.8497555
11
279.3011786
21
-100.8497555
0
LINE
8
0
10
279.0158703
20
-100.8771391
11
239.10833
21
-108.6089271
0
ARC
8
0
10
219.9492103
20
-109.6860375
40
1.5
50
88.6307527
51
180
0
ARC
8
0
10
219.9492103
20
-178.6481497
40
1.5
50
180
51
209.9773367
0
ARC
8
0
10
230.0666397
20
-196.1880726
40
1.5
50
209.9773367
51
292.3596271
0
ARC
8
0
10
269.5692859
20
-183.1827056
40
1.5
50
91.1395163
51
112.3596271
0
ARC
8
0
10
332.6076022
20
-178.9282237
40
1.5
50
271.1395163
51
307.9021141
0
ARC
8
0
10
350.4463712
20
-165.0400639
40
1.5
50
307.9021141
51
352.0061561
0
ARC
8
0
10
352.8714063
20
-147.7715856
40
1.5
50
352.0061561
51
33.9833402
0
ARC
8
0
10
337.3571659
20
-124.7563472
40
1.5
50
33.9833402
51
54.7345904
0
ARC
8
0
10
316.4038003
20
-109.9395213
40
1.5
50
54.7345904
51
69.849156
0
ARC
8
0
10
295.7206834
20
-102.3497555
40
1.5
50
69.849156
51
90
0
ARC
8
0
10
279.3011786
20
-102.3497555
40
1.5
50
90
51
100.9647828
0
ARC
8
0
10
238.8230216
20
-107.1363107
40
1.5
50
268.6307527
51
280.9647828
0
ENDSEC
0
EOF